# Blender v2.83.9 OBJ File: 'GMTKGameJam.blend'
# www.blender.org
mtllib d6.mtl
o d6_Solid.002
v -0.577350 -0.577350 0.577350
v 0.577350 -0.577350 0.577350
v 0.577350 -0.577350 -0.577350
v -0.577350 -0.577350 -0.577350
v -0.577350 0.577350 0.577350
v 0.577350 0.577350 0.577350
v 0.577350 0.577350 -0.577350
v -0.577350 0.577350 -0.577350
vn 0.0000 -1.0000 0.0000
vn 0.0000 0.0000 1.0000
vn -1.0000 0.0000 0.0000
vn 1.0000 0.0000 0.0000
vn 0.0000 0.0000 -1.0000
vn 0.0000 1.0000 0.0000
usemtl Material
s off
f 1//1 4//1 3//1 2//1
f 1//2 2//2 6//2 5//2
f 1//3 5//3 8//3 4//3
f 7//4 6//4 2//4 3//4
f 7//5 3//5 4//5 8//5
f 7//6 8//6 5//6 6//6
