# Blender v2.83.9 OBJ File: 'GMTKGameJam.blend'
# www.blender.org
mtllib dSpikeBall.mtl
o d12_Solid.004
v 0.577350 0.577350 3.141624
v 0.577350 -0.577350 3.141624
v 0.577350 0.577350 4.296325
v 0.577350 -0.577350 4.296325
v -0.577350 0.577350 3.141624
v -0.577350 -0.577350 3.141624
v -0.577350 0.577350 4.296325
v -0.577350 -0.577350 4.296325
v 0.356822 0.000000 2.784802
v -0.356822 0.000000 2.784802
v 0.356822 0.000000 4.653147
v -0.356822 0.000000 4.653147
v 0.934172 0.356822 3.718974
v 0.934172 -0.356822 3.718974
v -0.934172 0.356822 3.718974
v -0.934172 -0.356822 3.718974
v 0.000000 0.934172 3.362152
v 0.000000 0.934172 4.075797
v 0.000000 -0.934172 3.362152
v 0.000000 -0.934172 4.075797
vn -0.0000 0.5257 -0.8507
vn 0.8507 -0.0000 -0.5257
vn 0.5257 0.8507 0.0000
vn 0.0000 -0.5257 -0.8507
vn 0.8507 0.0000 0.5257
vn -0.5257 0.8507 0.0000
vn -0.8507 0.0000 -0.5257
vn 0.0000 0.5257 0.8507
vn 0.5257 -0.8507 -0.0000
vn -0.5257 -0.8507 0.0000
vn -0.8507 0.0000 0.5257
vn 0.0000 -0.5257 0.8507
usemtl Material
s off
f 1//1 9//1 5//1 17//1
f 9//1 10//1 5//1
f 1//2 13//2 2//2 9//2
f 13//2 14//2 2//2
f 1//3 17//3 3//3 13//3
f 17//3 18//3 3//3
f 9//4 2//4 6//4 10//4
f 2//4 19//4 6//4
f 13//5 3//5 4//5 14//5
f 3//5 11//5 4//5
f 17//6 5//6 7//6 18//6
f 5//6 15//6 7//6
f 10//7 6//7 15//7 5//7
f 6//7 16//7 15//7
f 7//8 12//8 3//8 18//8
f 12//8 11//8 3//8
f 4//9 20//9 2//9 14//9
f 20//9 19//9 2//9
f 8//10 16//10 19//10 20//10
f 16//10 6//10 19//10
f 8//11 12//11 15//11 16//11
f 12//11 7//11 15//11
f 8//12 20//12 11//12 12//12
f 20//12 4//12 11//12
o d20_Solid.005
v 0.850651 0.000000 3.193243
v -0.850651 0.000000 3.193243
v 0.850651 0.000000 4.244705
v -0.850651 0.000000 4.244705
v 0.525731 0.850651 3.718974
v 0.525731 -0.850651 3.718974
v -0.525731 0.850651 3.718974
v -0.525731 -0.850651 3.718974
v 0.000000 0.525731 2.868324
v 0.000000 0.525731 4.569625
v 0.000000 -0.525731 2.868324
v 0.000000 -0.525731 4.569625
vn 0.5774 0.5774 -0.5774
vn 0.5774 -0.5774 -0.5774
vn 0.5774 0.5774 0.5774
vn 0.5774 -0.5774 0.5774
vn -0.5774 0.5774 -0.5774
vn -0.5774 -0.5774 -0.5774
vn -0.5774 0.5774 0.5774
vn -0.5774 -0.5774 0.5774
vn 0.3568 0.0000 -0.9342
vn -0.3568 0.0000 -0.9342
vn 0.3568 0.0000 0.9342
vn -0.3568 0.0000 0.9342
vn 0.9342 0.3568 0.0000
vn 0.9342 -0.3568 0.0000
vn -0.9342 0.3568 0.0000
vn -0.9342 -0.3568 0.0000
vn 0.0000 0.9342 -0.3568
vn 0.0000 0.9342 0.3568
vn 0.0000 -0.9342 -0.3568
vn 0.0000 -0.9342 0.3568
usemtl Material
s off
f 21//13 29//13 25//13
f 21//14 26//14 31//14
f 23//15 25//15 30//15
f 23//16 32//16 26//16
f 22//17 27//17 29//17
f 22//18 31//18 28//18
f 24//19 30//19 27//19
f 24//20 28//20 32//20
f 21//21 31//21 29//21
f 22//22 29//22 31//22
f 23//23 30//23 32//23
f 24//24 32//24 30//24
f 25//25 23//25 21//25
f 26//26 21//26 23//26
f 27//27 22//27 24//27
f 28//28 24//28 22//28
f 29//29 27//29 25//29
f 30//30 25//30 27//30
f 31//31 26//31 28//31
f 32//32 28//32 26//32
